STARTFONT 2.1
COMMENT This is a 16x26 ASCII characters only font table
COMMENT developed by Stretch for the purposes of font sample demonstration.
COMMENT This is font table is used as the built-in font by the VPP.
SIZE 12 100 100
FONTBOUNDINGBOX 16 26 0 0
CHARS 95
STARTCHAR uni0020
ENCODING  32
SWIDTH 960 0
DWIDTH 16 0
BBX 16 26 0 0
BITMAP
0000
0000
0000
0000
0000
0000
0000
0000
0000
0000
0000
0000
0000
0000
0000
0000
0000
0000
0000
0000
0000
0000
0000
0000
0000
0000
ENDCHAR
STARTCHAR uni0021
ENCODING  33
SWIDTH 960 0
DWIDTH 16 0
BBX 16 26 0 0
BITMAP
0f00
0f00
0f00
0f00
0f00
0f00
0f00
0f00
0f00
0f00
0f00
0f00
0f00
0f00
0f00
0f00
0000
0000
0f00
0f00
0000
0000
0000
0000
0000
0000
ENDCHAR
STARTCHAR uni0022
ENCODING  34
SWIDTH 960 0
DWIDTH 16 0
BBX 16 26 0 0
BITMAP
3cf0
3cf0
3cf0
3cf0
3cf0
3cf0
0000
0000
0000
0000
0000
0000
0000
0000
0000
0000
0000
0000
0000
0000
0000
0000
0000
0000
0000
0000
ENDCHAR
STARTCHAR uni0023
ENCODING  35
SWIDTH 960 0
DWIDTH 16 0
BBX 16 26 0 0
BITMAP
3cf0
3cf0
3cf0
3cf0
fffc
fffc
3cf0
3cf0
3cf0
3cf0
3cf0
3cf0
3cf0
3cf0
fffc
fffc
3cf0
3cf0
3cf0
3cf0
0000
0000
0000
0000
0000
0000
ENDCHAR
STARTCHAR uni0024
ENCODING  36
SWIDTH 960 0
DWIDTH 16 0
BBX 16 26 0 0
BITMAP
0300
0300
3ff0
3ff0
f33c
f33c
f300
f300
3ff0
3ff0
033c
033c
033c
033c
f33c
f33c
3ff0
3ff0
0300
0300
0000
0000
0000
0000
0000
0000
ENDCHAR
STARTCHAR uni0025
ENCODING  37
SWIDTH 960 0
DWIDTH 16 0
BBX 16 26 0 0
BITMAP
f03c
f03c
f03c
f03c
00f0
00f0
03c0
03c0
03c0
03c0
0f00
0f00
0f00
0f00
3c00
3c00
f03c
f03c
f03c
f03c
0000
0000
0000
0000
0000
0000
ENDCHAR
STARTCHAR uni0026
ENCODING  38
SWIDTH 960 0
DWIDTH 16 0
BBX 16 26 0 0
BITMAP
3fc0
3fc0
f0f0
f0f0
f0f0
f0f0
3fc0
3fc0
0f00
0f00
3fc0
3fc0
f0f0
f0f0
f03c
f03c
f0f0
f0f0
3fcc
3fcc
0000
0000
0000
0000
0000
0000
ENDCHAR
STARTCHAR uni0027
ENCODING  39
SWIDTH 960 0
DWIDTH 16 0
BBX 16 26 0 0
BITMAP
0f00
0f00
0f00
0f00
0f00
0f00
0000
0000
0000
0000
0000
0000
0000
0000
0000
0000
0000
0000
0000
0000
0000
0000
0000
0000
0000
0000
ENDCHAR
STARTCHAR uni0028
ENCODING  40
SWIDTH 960 0
DWIDTH 16 0
BBX 16 26 0 0
BITMAP
03c0
03c0
0f00
0f00
3c00
3c00
3c00
3c00
3c00
3c00
3c00
3c00
3c00
3c00
3c00
3c00
0f00
0f00
03c0
03c0
0000
0000
0000
0000
0000
0000
ENDCHAR
STARTCHAR uni0029
ENCODING  41
SWIDTH 960 0
DWIDTH 16 0
BBX 16 26 0 0
BITMAP
3c00
3c00
0f00
0f00
03c0
03c0
03c0
03c0
03c0
03c0
03c0
03c0
03c0
03c0
03c0
03c0
0f00
0f00
3c00
3c00
0000
0000
0000
0000
0000
0000
ENDCHAR
STARTCHAR uni002a
ENCODING  42
SWIDTH 960 0
DWIDTH 16 0
BBX 16 26 0 0
BITMAP
0000
0000
0000
0000
3030
3030
3cf0
3cf0
0fc0
0fc0
fffc
fffc
0fc0
0fc0
3cf0
3cf0
3030
3030
0000
0000
0000
0000
0000
0000
0000
0000
ENDCHAR
STARTCHAR uni002b
ENCODING  43
SWIDTH 960 0
DWIDTH 16 0
BBX 16 26 0 0
BITMAP
0000
0000
0000
0000
0000
0000
0f00
0f00
0f00
0f00
fff0
fff0
0f00
0f00
0f00
0f00
0000
0000
0000
0000
0000
0000
0000
0000
0000
0000
ENDCHAR
STARTCHAR uni002c
ENCODING  44
SWIDTH 960 0
DWIDTH 16 0
BBX 16 26 0 0
BITMAP
0000
0000
0000
0000
0000
0000
0000
0000
0000
0000
0000
0000
0000
0000
0000
0000
0000
0000
03c0
03c0
03c0
03c0
0f00
0f00
0000
0000
ENDCHAR
STARTCHAR uni002d
ENCODING  45
SWIDTH 960 0
DWIDTH 16 0
BBX 16 26 0 0
BITMAP
0000
0000
0000
0000
0000
0000
0000
0000
0000
0000
0000
0000
fff0
fff0
0000
0000
0000
0000
0000
0000
0000
0000
0000
0000
0000
0000
ENDCHAR
STARTCHAR uni002e
ENCODING  46
SWIDTH 960 0
DWIDTH 16 0
BBX 16 26 0 0
BITMAP
0000
0000
0000
0000
0000
0000
0000
0000
0000
0000
0000
0000
0000
0000
0000
0000
0f00
0f00
0f00
0f00
0000
0000
0000
0000
0000
0000
ENDCHAR
STARTCHAR uni002f
ENCODING  47
SWIDTH 960 0
DWIDTH 16 0
BBX 16 26 0 0
BITMAP
0000
0000
003c
003c
003c
003c
00f0
00f0
03c0
03c0
0f00
0f00
3c00
3c00
f000
f000
f000
f000
0000
0000
0000
0000
0000
0000
0000
0000
ENDCHAR
STARTCHAR uni0030
ENCODING  48
SWIDTH 960 0
DWIDTH 16 0
BBX 16 26 0 0
BITMAP
3ff0
3ff0
f03c
f03c
f03c
f03c
f0fc
f0fc
f3fc
f3fc
ff3c
ff3c
fc3c
fc3c
f03c
f03c
f03c
f03c
3ff0
3ff0
0000
0000
0000
0000
0000
0000
ENDCHAR
STARTCHAR uni0031
ENCODING  49
SWIDTH 960 0
DWIDTH 16 0
BBX 16 26 0 0
BITMAP
03c0
03c0
0fc0
0fc0
3fc0
3fc0
03c0
03c0
03c0
03c0
03c0
03c0
03c0
03c0
03c0
03c0
03c0
03c0
0ff0
0ff0
0000
0000
0000
0000
0000
0000
ENDCHAR
STARTCHAR uni0032
ENCODING  50
SWIDTH 960 0
DWIDTH 16 0
BBX 16 26 0 0
BITMAP
3ff0
3ff0
f03c
f03c
003c
003c
003c
003c
00f0
00f0
03c0
03c0
0f00
0f00
3c00
3c00
f000
f000
fffc
fffc
0000
0000
0000
0000
0000
0000
ENDCHAR
STARTCHAR uni0033
ENCODING  51
SWIDTH 960 0
DWIDTH 16 0
BBX 16 26 0 0
BITMAP
3ff0
3ff0
f03c
f03c
003c
003c
003c
003c
03f0
03f0
003c
003c
003c
003c
003c
003c
f03c
f03c
3ff0
3ff0
0000
0000
0000
0000
0000
0000
ENDCHAR
STARTCHAR uni0034
ENCODING  52
SWIDTH 960 0
DWIDTH 16 0
BBX 16 26 0 0
BITMAP
00fc
00fc
03fc
03fc
0f3c
0f3c
3c3c
3c3c
f03c
f03c
fffc
fffc
003c
003c
003c
003c
003c
003c
003c
003c
0000
0000
0000
0000
0000
0000
ENDCHAR
STARTCHAR uni0035
ENCODING  53
SWIDTH 960 0
DWIDTH 16 0
BBX 16 26 0 0
BITMAP
fffc
fffc
f000
f000
f000
f000
f000
f000
fff0
fff0
003c
003c
003c
003c
003c
003c
f03c
f03c
3ff0
3ff0
0000
0000
0000
0000
0000
0000
ENDCHAR
STARTCHAR uni0036
ENCODING  54
SWIDTH 960 0
DWIDTH 16 0
BBX 16 26 0 0
BITMAP
3ff0
3ff0
f03c
f03c
f000
f000
f000
f000
fff0
fff0
f03c
f03c
f03c
f03c
f03c
f03c
f03c
f03c
3ff0
3ff0
0000
0000
0000
0000
0000
0000
ENDCHAR
STARTCHAR uni0037
ENCODING  55
SWIDTH 960 0
DWIDTH 16 0
BBX 16 26 0 0
BITMAP
fffc
fffc
003c
003c
00f0
00f0
00f0
00f0
03c0
03c0
03c0
03c0
0f00
0f00
0f00
0f00
0f00
0f00
0f00
0f00
0000
0000
0000
0000
0000
0000
ENDCHAR
STARTCHAR uni0038
ENCODING  56
SWIDTH 960 0
DWIDTH 16 0
BBX 16 26 0 0
BITMAP
3ff0
3ff0
f03c
f03c
f03c
f03c
f03c
f03c
3ff0
3ff0
f03c
f03c
f03c
f03c
f03c
f03c
f03c
f03c
3ff0
3ff0
0000
0000
0000
0000
0000
0000
ENDCHAR
STARTCHAR uni0039
ENCODING  57
SWIDTH 960 0
DWIDTH 16 0
BBX 16 26 0 0
BITMAP
3ff0
3ff0
f03c
f03c
f03c
f03c
f03c
f03c
f03c
f03c
3ffc
3ffc
003c
003c
003c
003c
f03c
f03c
3ff0
3ff0
0000
0000
0000
0000
0000
0000
ENDCHAR
STARTCHAR uni003a
ENCODING  58
SWIDTH 960 0
DWIDTH 16 0
BBX 16 26 0 0
BITMAP
0000
0000
0000
0000
0000
0000
0f00
0f00
0f00
0f00
0000
0000
0000
0000
0f00
0f00
0f00
0f00
0000
0000
0000
0000
0000
0000
0000
0000
ENDCHAR
STARTCHAR uni003b
ENCODING  59
SWIDTH 960 0
DWIDTH 16 0
BBX 16 26 0 0
BITMAP
0000
0000
0000
0000
0000
0000
0000
0000
0f00
0f00
0f00
0f00
0000
0000
0000
0000
0f00
0f00
0f00
0f00
3c00
3c00
0000
0000
0000
0000
ENDCHAR
STARTCHAR uni003c
ENCODING  60
SWIDTH 960 0
DWIDTH 16 0
BBX 16 26 0 0
BITMAP
0000
0000
0000
0000
00f0
00f0
03c0
03c0
0f00
0f00
3c00
3c00
0f00
0f00
03c0
03c0
00f0
00f0
0000
0000
0000
0000
0000
0000
0000
0000
ENDCHAR
STARTCHAR uni003d
ENCODING  61
SWIDTH 960 0
DWIDTH 16 0
BBX 16 26 0 0
BITMAP
0000
0000
0000
0000
0000
0000
0000
0000
ffc0
ffc0
0000
0000
0000
0000
ffc0
ffc0
0000
0000
0000
0000
0000
0000
0000
0000
0000
0000
ENDCHAR
STARTCHAR uni003e
ENCODING  62
SWIDTH 960 0
DWIDTH 16 0
BBX 16 26 0 0
BITMAP
0000
0000
0000
0000
3c00
3c00
0f00
0f00
03c0
03c0
00f0
00f0
03c0
03c0
0f00
0f00
3c00
3c00
0000
0000
0000
0000
0000
0000
0000
0000
ENDCHAR
STARTCHAR uni003f
ENCODING  63
SWIDTH 960 0
DWIDTH 16 0
BBX 16 26 0 0
BITMAP
3fc0
3fc0
f0f0
f0f0
00f0
00f0
00f0
00f0
03c0
03c0
0f00
0f00
0f00
0f00
0000
0000
0f00
0f00
0f00
0f00
0000
0000
0000
0000
0000
0000
ENDCHAR
STARTCHAR uni0040
ENCODING  64
SWIDTH 960 0
DWIDTH 16 0
BBX 16 26 0 0
BITMAP
3ff0
3ff0
f03c
f03c
c00c
c00c
c3cc
c3cc
cccc
cccc
cccc
cccc
cffc
cffc
c000
c000
f000
f000
3ffc
3ffc
0000
0000
0000
0000
0000
0000
ENDCHAR
STARTCHAR uni0041
ENCODING  65
SWIDTH 960 0
DWIDTH 16 0
BBX 16 26 0 0
BITMAP
0fc0
0fc0
3ff0
3ff0
f03c
f03c
f03c
f03c
f03c
f03c
fffc
fffc
f03c
f03c
f03c
f03c
f03c
f03c
f03c
f03c
0000
0000
0000
0000
0000
0000
ENDCHAR
STARTCHAR uni0042
ENCODING  66
SWIDTH 960 0
DWIDTH 16 0
BBX 16 26 0 0
BITMAP
fff0
fff0
f03c
f03c
f03c
f03c
f03c
f03c
fff0
fff0
f03c
f03c
f03c
f03c
f03c
f03c
f03c
f03c
fff0
fff0
0000
0000
0000
0000
0000
0000
ENDCHAR
STARTCHAR uni0043
ENCODING  67
SWIDTH 960 0
DWIDTH 16 0
BBX 16 26 0 0
BITMAP
3ff0
3ff0
f03c
f03c
f000
f000
f000
f000
f000
f000
f000
f000
f000
f000
f000
f000
f03c
f03c
3ff0
3ff0
0000
0000
0000
0000
0000
0000
ENDCHAR
STARTCHAR uni0044
ENCODING  68
SWIDTH 960 0
DWIDTH 16 0
BBX 16 26 0 0
BITMAP
fff0
fff0
f03c
f03c
f03c
f03c
f03c
f03c
f03c
f03c
f03c
f03c
f03c
f03c
f03c
f03c
f03c
f03c
fff0
fff0
0000
0000
0000
0000
0000
0000
ENDCHAR
STARTCHAR uni0045
ENCODING  69
SWIDTH 960 0
DWIDTH 16 0
BBX 16 26 0 0
BITMAP
fff0
fff0
f000
f000
f000
f000
f000
f000
ffc0
ffc0
f000
f000
f000
f000
f000
f000
f000
f000
fff0
fff0
0000
0000
0000
0000
0000
0000
ENDCHAR
STARTCHAR uni0046
ENCODING  70
SWIDTH 960 0
DWIDTH 16 0
BBX 16 26 0 0
BITMAP
fff0
fff0
f000
f000
f000
f000
f000
f000
ffc0
ffc0
f000
f000
f000
f000
f000
f000
f000
f000
f000
f000
0000
0000
0000
0000
0000
0000
ENDCHAR
STARTCHAR uni0047
ENCODING  71
SWIDTH 960 0
DWIDTH 16 0
BBX 16 26 0 0
BITMAP
3ff0
3ff0
f03c
f03c
f000
f000
f000
f000
f3fc
f3fc
f03c
f03c
f03c
f03c
f03c
f03c
f03c
f03c
3ff0
3ff0
0000
0000
0000
0000
0000
0000
ENDCHAR
STARTCHAR uni0048
ENCODING  72
SWIDTH 960 0
DWIDTH 16 0
BBX 16 26 0 0
BITMAP
f03c
f03c
f03c
f03c
f03c
f03c
f03c
f03c
fffc
fffc
f03c
f03c
f03c
f03c
f03c
f03c
f03c
f03c
f03c
f03c
0000
0000
0000
0000
0000
0000
ENDCHAR
STARTCHAR uni0049
ENCODING  73
SWIDTH 960 0
DWIDTH 16 0
BBX 16 26 0 0
BITMAP
0ff0
0ff0
03c0
03c0
03c0
03c0
03c0
03c0
03c0
03c0
03c0
03c0
03c0
03c0
03c0
03c0
03c0
03c0
0ff0
0ff0
0000
0000
0000
0000
0000
0000
ENDCHAR
STARTCHAR uni004a
ENCODING  74
SWIDTH 960 0
DWIDTH 16 0
BBX 16 26 0 0
BITMAP
03c0
03c0
03c0
03c0
03c0
03c0
03c0
03c0
03c0
03c0
03c0
03c0
03c0
03c0
03c0
03c0
f3c0
f3c0
3f00
3f00
0000
0000
0000
0000
0000
0000
ENDCHAR
STARTCHAR uni004b
ENCODING  75
SWIDTH 960 0
DWIDTH 16 0
BBX 16 26 0 0
BITMAP
f03c
f03c
f03c
f03c
f0f0
f0f0
f3c0
f3c0
ff00
ff00
f3c0
f3c0
f0f0
f0f0
f0f0
f0f0
f03c
f03c
f03c
f03c
0000
0000
0000
0000
0000
0000
ENDCHAR
STARTCHAR uni004c
ENCODING  76
SWIDTH 960 0
DWIDTH 16 0
BBX 16 26 0 0
BITMAP
f000
f000
f000
f000
f000
f000
f000
f000
f000
f000
f000
f000
f000
f000
f000
f000
f000
f000
fff0
fff0
0000
0000
0000
0000
0000
0000
ENDCHAR
STARTCHAR uni004d
ENCODING  77
SWIDTH 960 0
DWIDTH 16 0
BBX 16 26 0 0
BITMAP
f03c
f03c
fcfc
fcfc
fffc
fffc
f33c
f33c
f03c
f03c
f03c
f03c
f03c
f03c
f03c
f03c
f03c
f03c
f03c
f03c
0000
0000
0000
0000
0000
0000
ENDCHAR
STARTCHAR uni004e
ENCODING  78
SWIDTH 960 0
DWIDTH 16 0
BBX 16 26 0 0
BITMAP
f03c
f03c
f03c
f03c
fc3c
fc3c
ff3c
ff3c
fffc
fffc
f3fc
f3fc
f0fc
f0fc
f03c
f03c
f03c
f03c
f03c
f03c
0000
0000
0000
0000
0000
0000
ENDCHAR
STARTCHAR uni004f
ENCODING  79
SWIDTH 960 0
DWIDTH 16 0
BBX 16 26 0 0
BITMAP
3ff0
3ff0
f03c
f03c
f03c
f03c
f03c
f03c
f03c
f03c
f03c
f03c
f03c
f03c
f03c
f03c
f03c
f03c
3ff0
3ff0
0000
0000
0000
0000
0000
0000
ENDCHAR
STARTCHAR uni0050
ENCODING  80
SWIDTH 960 0
DWIDTH 16 0
BBX 16 26 0 0
BITMAP
fff0
fff0
f03c
f03c
f03c
f03c
f03c
f03c
f03c
f03c
fff0
fff0
f000
f000
f000
f000
f000
f000
f000
f000
0000
0000
0000
0000
0000
0000
ENDCHAR
STARTCHAR uni0051
ENCODING  81
SWIDTH 960 0
DWIDTH 16 0
BBX 16 26 0 0
BITMAP
3ff0
3ff0
f03c
f03c
f03c
f03c
f03c
f03c
f03c
f03c
f03c
f03c
f03c
f03c
f330
f330
f0c0
f0c0
3f3c
3f3c
0000
0000
0000
0000
0000
0000
ENDCHAR
STARTCHAR uni0052
ENCODING  82
SWIDTH 960 0
DWIDTH 16 0
BBX 16 26 0 0
BITMAP
fff0
fff0
f03c
f03c
f03c
f03c
f03c
f03c
f03c
f03c
fff0
fff0
ff00
ff00
f3c0
f3c0
f0f0
f0f0
f03c
f03c
0000
0000
0000
0000
0000
0000
ENDCHAR
STARTCHAR uni0053
ENCODING  83
SWIDTH 960 0
DWIDTH 16 0
BBX 16 26 0 0
BITMAP
3ff0
3ff0
f03c
f03c
f000
f000
f000
f000
3ff0
3ff0
003c
003c
003c
003c
003c
003c
f03c
f03c
3fc0
3fc0
0000
0000
0000
0000
0000
0000
ENDCHAR
STARTCHAR uni0054
ENCODING  84
SWIDTH 960 0
DWIDTH 16 0
BBX 16 26 0 0
BITMAP
fff0
fff0
0f00
0f00
0f00
0f00
0f00
0f00
0f00
0f00
0f00
0f00
0f00
0f00
0f00
0f00
0f00
0f00
0f00
0f00
0000
0000
0000
0000
0000
0000
ENDCHAR
STARTCHAR uni0055
ENCODING  85
SWIDTH 960 0
DWIDTH 16 0
BBX 16 26 0 0
BITMAP
f03c
f03c
f03c
f03c
f03c
f03c
f03c
f03c
f03c
f03c
f03c
f03c
f03c
f03c
f03c
f03c
f03c
f03c
3ff0
3ff0
0000
0000
0000
0000
0000
0000
ENDCHAR
STARTCHAR uni0056
ENCODING  86
SWIDTH 960 0
DWIDTH 16 0
BBX 16 26 0 0
BITMAP
f03c
f03c
f03c
f03c
f03c
f03c
f03c
f03c
f03c
f03c
f03c
f03c
f03c
f03c
3cf0
3cf0
0fc0
0fc0
0300
0300
0000
0000
0000
0000
0000
0000
ENDCHAR
STARTCHAR uni0057
ENCODING  87
SWIDTH 960 0
DWIDTH 16 0
BBX 16 26 0 0
BITMAP
f03c
f03c
f03c
f03c
f03c
f03c
f03c
f03c
f03c
f03c
f03c
f03c
f33c
f33c
fffc
fffc
fcfc
fcfc
f03c
f03c
0000
0000
0000
0000
0000
0000
ENDCHAR
STARTCHAR uni0058
ENCODING  88
SWIDTH 960 0
DWIDTH 16 0
BBX 16 26 0 0
BITMAP
f03c
f03c
f03c
f03c
f03c
f03c
3cf0
3cf0
0fc0
0fc0
0300
0300
0fc0
0fc0
3cf0
3cf0
f03c
f03c
f03c
f03c
0000
0000
0000
0000
0000
0000
ENDCHAR
STARTCHAR uni0059
ENCODING  89
SWIDTH 960 0
DWIDTH 16 0
BBX 16 26 0 0
BITMAP
f0f0
f0f0
f0f0
f0f0
f0f0
f0f0
f0f0
f0f0
3fc0
3fc0
0f00
0f00
0f00
0f00
0f00
0f00
0f00
0f00
0f00
0f00
0000
0000
0000
0000
0000
0000
ENDCHAR
STARTCHAR uni005a
ENCODING  90
SWIDTH 960 0
DWIDTH 16 0
BBX 16 26 0 0
BITMAP
fffc
fffc
003c
003c
003c
003c
00f0
00f0
03c0
03c0
0f00
0f00
3c00
3c00
f000
f000
f000
f000
fffc
fffc
0000
0000
0000
0000
0000
0000
ENDCHAR
STARTCHAR uni005b
ENCODING  91
SWIDTH 960 0
DWIDTH 16 0
BBX 16 26 0 0
BITMAP
ff00
ff00
f000
f000
f000
f000
f000
f000
f000
f000
f000
f000
f000
f000
f000
f000
f000
f000
ff00
ff00
0000
0000
0000
0000
0000
0000
ENDCHAR
STARTCHAR uni005c
ENCODING  92
SWIDTH 960 0
DWIDTH 16 0
BBX 16 26 0 0
BITMAP
0000
0000
f000
f000
f000
f000
3c00
3c00
0f00
0f00
03c0
03c0
00f0
00f0
003c
003c
003c
003c
0000
0000
0000
0000
0000
0000
0000
0000
ENDCHAR
STARTCHAR uni005d
ENCODING  93
SWIDTH 960 0
DWIDTH 16 0
BBX 16 26 0 0
BITMAP
ff00
ff00
0f00
0f00
0f00
0f00
0f00
0f00
0f00
0f00
0f00
0f00
0f00
0f00
0f00
0f00
0f00
0f00
ff00
ff00
0000
0000
0000
0000
0000
0000
ENDCHAR
STARTCHAR uni005e
ENCODING  94
SWIDTH 960 0
DWIDTH 16 0
BBX 16 26 0 0
BITMAP
0000
0000
0f00
0f00
3fc0
3fc0
f0f0
f0f0
0000
0000
0000
0000
0000
0000
0000
0000
0000
0000
0000
0000
0000
0000
0000
0000
0000
0000
ENDCHAR
STARTCHAR uni005f
ENCODING  95
SWIDTH 960 0
DWIDTH 16 0
BBX 16 26 0 0
BITMAP
0000
0000
0000
0000
0000
0000
0000
0000
0000
0000
0000
0000
0000
0000
0000
0000
0000
0000
fff0
fff0
0000
0000
0000
0000
0000
0000
ENDCHAR
STARTCHAR uni0060
ENCODING  96
SWIDTH 960 0
DWIDTH 16 0
BBX 16 26 0 0
BITMAP
0f00
0f00
0f00
0f00
0f00
0f00
0000
0000
0000
0000
0000
0000
0000
0000
0000
0000
0000
0000
0000
0000
0000
0000
0000
0000
0000
0000
ENDCHAR
STARTCHAR uni0061
ENCODING  97
SWIDTH 960 0
DWIDTH 16 0
BBX 16 26 0 0
BITMAP
0000
0000
0000
0000
0000
0000
3ff0
3ff0
f03c
f03c
003c
003c
3ffc
3ffc
f03c
f03c
f03c
f03c
3ffc
3ffc
0000
0000
0000
0000
0000
0000
ENDCHAR
STARTCHAR uni0062
ENCODING  98
SWIDTH 960 0
DWIDTH 16 0
BBX 16 26 0 0
BITMAP
f000
f000
f000
f000
f000
f000
fff0
fff0
f03c
f03c
f03c
f03c
f03c
f03c
f03c
f03c
f03c
f03c
fff0
fff0
0000
0000
0000
0000
0000
0000
ENDCHAR
STARTCHAR uni0063
ENCODING  99
SWIDTH 960 0
DWIDTH 16 0
BBX 16 26 0 0
BITMAP
0000
0000
0000
0000
0000
0000
3ff0
3ff0
f03c
f03c
f000
f000
f000
f000
f000
f000
f03c
f03c
3ff0
3ff0
0000
0000
0000
0000
0000
0000
ENDCHAR
STARTCHAR uni0064
ENCODING  100
SWIDTH 960 0
DWIDTH 16 0
BBX 16 26 0 0
BITMAP
003c
003c
003c
003c
003c
003c
3ffc
3ffc
f03c
f03c
f03c
f03c
f03c
f03c
f03c
f03c
f03c
f03c
3ffc
3ffc
0000
0000
0000
0000
0000
0000
ENDCHAR
STARTCHAR uni0065
ENCODING  101
SWIDTH 960 0
DWIDTH 16 0
BBX 16 26 0 0
BITMAP
0000
0000
0000
0000
0000
0000
3ff0
3ff0
f03c
f03c
f03c
f03c
fffc
fffc
f000
f000
f03c
f03c
3ff0
3ff0
0000
0000
0000
0000
0000
0000
ENDCHAR
STARTCHAR uni0066
ENCODING  102
SWIDTH 960 0
DWIDTH 16 0
BBX 16 26 0 0
BITMAP
0fc0
0fc0
3cf0
3cf0
3c00
3c00
3c00
3c00
3c00
3c00
ff00
ff00
3c00
3c00
3c00
3c00
3c00
3c00
3c00
3c00
0000
0000
0000
0000
0000
0000
ENDCHAR
STARTCHAR uni0067
ENCODING  103
SWIDTH 960 0
DWIDTH 16 0
BBX 16 26 0 0
BITMAP
0000
0000
0000
0000
0000
0000
3ff0
3ff0
f03c
f03c
f03c
f03c
f03c
f03c
f03c
f03c
f03c
f03c
3ffc
3ffc
003c
003c
f03c
f03c
3ff0
3ff0
ENDCHAR
STARTCHAR uni0068
ENCODING  104
SWIDTH 960 0
DWIDTH 16 0
BBX 16 26 0 0
BITMAP
f000
f000
f000
f000
f000
f000
f3f0
f3f0
fc3c
fc3c
f03c
f03c
f03c
f03c
f03c
f03c
f03c
f03c
f03c
f03c
0000
0000
0000
0000
0000
0000
ENDCHAR
STARTCHAR uni0069
ENCODING  105
SWIDTH 960 0
DWIDTH 16 0
BBX 16 26 0 0
BITMAP
0000
0000
03c0
03c0
0000
0000
0fc0
0fc0
03c0
03c0
03c0
03c0
03c0
03c0
03c0
03c0
03c0
03c0
0ff0
0ff0
0000
0000
0000
0000
0000
0000
ENDCHAR
STARTCHAR uni006a
ENCODING  106
SWIDTH 960 0
DWIDTH 16 0
BBX 16 26 0 0
BITMAP
0000
0000
03c0
03c0
0000
0000
0fc0
0fc0
03c0
03c0
03c0
03c0
03c0
03c0
03c0
03c0
03c0
03c0
03c0
03c0
03c0
03c0
f3c0
f3c0
3f00
3f00
ENDCHAR
STARTCHAR uni006b
ENCODING  107
SWIDTH 960 0
DWIDTH 16 0
BBX 16 26 0 0
BITMAP
f000
f000
f000
f000
f000
f000
f03c
f03c
f0f0
f0f0
f3c0
f3c0
ff00
ff00
f3c0
f3c0
f0f0
f0f0
f03c
f03c
0000
0000
0000
0000
0000
0000
ENDCHAR
STARTCHAR uni006c
ENCODING  108
SWIDTH 960 0
DWIDTH 16 0
BBX 16 26 0 0
BITMAP
0fc0
0fc0
03c0
03c0
03c0
03c0
03c0
03c0
03c0
03c0
03c0
03c0
03c0
03c0
03c0
03c0
03c0
03c0
0ff0
0ff0
0000
0000
0000
0000
0000
0000
ENDCHAR
STARTCHAR uni006d
ENCODING  109
SWIDTH 960 0
DWIDTH 16 0
BBX 16 26 0 0
BITMAP
0000
0000
0000
0000
0000
0000
ccf0
ccf0
f33c
f33c
f33c
f33c
f33c
f33c
f03c
f03c
f03c
f03c
f03c
f03c
0000
0000
0000
0000
0000
0000
ENDCHAR
STARTCHAR uni006e
ENCODING  110
SWIDTH 960 0
DWIDTH 16 0
BBX 16 26 0 0
BITMAP
0000
0000
0000
0000
0000
0000
f3f0
f3f0
fc3c
fc3c
f03c
f03c
f03c
f03c
f03c
f03c
f03c
f03c
f03c
f03c
0000
0000
0000
0000
0000
0000
ENDCHAR
STARTCHAR uni006f
ENCODING  111
SWIDTH 960 0
DWIDTH 16 0
BBX 16 26 0 0
BITMAP
0000
0000
0000
0000
0000
0000
3ff0
3ff0
f03c
f03c
f03c
f03c
f03c
f03c
f03c
f03c
f03c
f03c
3ff0
3ff0
0000
0000
0000
0000
0000
0000
ENDCHAR
STARTCHAR uni0070
ENCODING  112
SWIDTH 960 0
DWIDTH 16 0
BBX 16 26 0 0
BITMAP
0000
0000
0000
0000
0000
0000
fff0
fff0
f03c
f03c
f03c
f03c
f03c
f03c
f03c
f03c
f03c
f03c
fff0
fff0
f000
f000
f000
f000
f000
f000
ENDCHAR
STARTCHAR uni0071
ENCODING  113
SWIDTH 960 0
DWIDTH 16 0
BBX 16 26 0 0
BITMAP
0000
0000
0000
0000
0000
0000
3ffc
3ffc
f03c
f03c
f03c
f03c
f03c
f03c
f03c
f03c
f03c
f03c
3ffc
3ffc
003c
003c
003c
003c
003c
003c
ENDCHAR
STARTCHAR uni0072
ENCODING  114
SWIDTH 960 0
DWIDTH 16 0
BBX 16 26 0 0
BITMAP
0000
0000
0000
0000
0000
0000
f3f0
f3f0
fc3c
fc3c
f000
f000
f000
f000
f000
f000
f000
f000
f000
f000
0000
0000
0000
0000
0000
0000
ENDCHAR
STARTCHAR uni0073
ENCODING  115
SWIDTH 960 0
DWIDTH 16 0
BBX 16 26 0 0
BITMAP
0000
0000
0000
0000
0000
0000
3ff0
3ff0
f03c
f03c
f000
f000
3ff0
3ff0
003c
003c
f03c
f03c
3ff0
3ff0
0000
0000
0000
0000
0000
0000
ENDCHAR
STARTCHAR uni0074
ENCODING  116
SWIDTH 960 0
DWIDTH 16 0
BBX 16 26 0 0
BITMAP
3c00
3c00
3c00
3c00
3c00
3c00
ff00
ff00
3c00
3c00
3c00
3c00
3c00
3c00
3c00
3c00
3cf0
3cf0
0fc0
0fc0
0000
0000
0000
0000
0000
0000
ENDCHAR
STARTCHAR uni0075
ENCODING  117
SWIDTH 960 0
DWIDTH 16 0
BBX 16 26 0 0
BITMAP
0000
0000
0000
0000
0000
0000
f03c
f03c
f03c
f03c
f03c
f03c
f03c
f03c
f03c
f03c
f0fc
f0fc
3f3c
3f3c
0000
0000
0000
0000
0000
0000
ENDCHAR
STARTCHAR uni0076
ENCODING  118
SWIDTH 960 0
DWIDTH 16 0
BBX 16 26 0 0
BITMAP
0000
0000
0000
0000
0000
0000
f03c
f03c
f03c
f03c
f03c
f03c
f03c
f03c
f03c
f03c
3cf0
3cf0
0fc0
0fc0
0000
0000
0000
0000
0000
0000
ENDCHAR
STARTCHAR uni0077
ENCODING  119
SWIDTH 960 0
DWIDTH 16 0
BBX 16 26 0 0
BITMAP
0000
0000
0000
0000
0000
0000
f03c
f03c
f03c
f03c
f03c
f03c
f03c
f03c
f33c
f33c
f33c
f33c
3cf0
3cf0
0000
0000
0000
0000
0000
0000
ENDCHAR
STARTCHAR uni0078
ENCODING  120
SWIDTH 960 0
DWIDTH 16 0
BBX 16 26 0 0
BITMAP
0000
0000
0000
0000
0000
0000
f0f0
f0f0
f0f0
f0f0
3fc0
3fc0
0f00
0f00
3fc0
3fc0
f0f0
f0f0
f0f0
f0f0
0000
0000
0000
0000
0000
0000
ENDCHAR
STARTCHAR uni0079
ENCODING  121
SWIDTH 960 0
DWIDTH 16 0
BBX 16 26 0 0
BITMAP
0000
0000
0000
0000
0000
0000
f03c
f03c
f03c
f03c
f03c
f03c
f03c
f03c
f03c
f03c
f03c
f03c
3ffc
3ffc
003c
003c
f03c
f03c
3ff0
3ff0
ENDCHAR
STARTCHAR uni007a
ENCODING  122
SWIDTH 960 0
DWIDTH 16 0
BBX 16 26 0 0
BITMAP
0000
0000
0000
0000
0000
0000
fff0
fff0
00f0
00f0
03c0
03c0
0f00
0f00
3c00
3c00
f000
f000
fff0
fff0
0000
0000
0000
0000
0000
0000
ENDCHAR
STARTCHAR uni007b
ENCODING  123
SWIDTH 960 0
DWIDTH 16 0
BBX 16 26 0 0
BITMAP
0f00
0f00
3c00
3c00
3c00
3c00
3c00
3c00
3c00
3c00
f000
f000
3c00
3c00
3c00
3c00
3c00
3c00
0f00
0f00
0000
0000
0000
0000
0000
0000
ENDCHAR
STARTCHAR uni007c
ENCODING  124
SWIDTH 960 0
DWIDTH 16 0
BBX 16 26 0 0
BITMAP
f000
f000
f000
f000
f000
f000
f000
f000
f000
f000
0000
0000
f000
f000
f000
f000
f000
f000
f000
f000
0000
0000
0000
0000
0000
0000
ENDCHAR
STARTCHAR uni007d
ENCODING  125
SWIDTH 960 0
DWIDTH 16 0
BBX 16 26 0 0
BITMAP
f000
f000
3c00
3c00
3c00
3c00
3c00
3c00
3c00
3c00
0f00
0f00
3c00
3c00
3c00
3c00
3c00
3c00
f000
f000
0000
0000
0000
0000
0000
0000
ENDCHAR
STARTCHAR uni007e
ENCODING  126
SWIDTH 960 0
DWIDTH 16 0
BBX 16 26 0 0
BITMAP
0000
0000
0000
0000
0000
0000
0000
0000
0000
0000
3f3c
3f3c
f3f0
f3f0
0000
0000
0000
0000
0000
0000
0000
0000
0000
0000
0000
0000
ENDCHAR
STARTCHAR uni007f
ENCODING  127
SWIDTH 960 0
DWIDTH 16 0
BBX 16 26 0 0
BITMAP
0f00
0f00
3fc0
3fc0
f0f0
f0f0
fff0
fff0
0000
0000
0000
0000
0000
0000
0000
0000
0000
0000
0000
0000
0000
0000
0000
0000
0000
0000
ENDCHAR
ENDFONT

